<svg width="347" height="46" viewBox="0 0 347 46" xmlns="http://www.w3.org/2000/svg" xmlns:xlink="http://www.w3.org/1999/xlink"><title>Artboard</title><defs><path id="a" d="M0 .68h214.866v46.026H0"/><path id="c" d="M0 .68h214.866v46.026H0"/><path id="e" d="M0 .68h214.866v46.026H0"/><path id="g" d="M0 .68h214.866v46.026H0"/><path id="i" d="M0 .68h214.866v46.026H0"/><path id="k" d="M0 .68h214.866v46.026H0"/></defs><g fill="none" fill-rule="evenodd"><g transform="translate(0 -1)"><mask id="b" fill="#fff"><use xlink:href="#a"/></mask><path d="M.958 46.718C.336 44.913 0 42.968 0 40.918c0-11.468 9.205-19.39 20.968-19.39 3.068 0 6.137.695 8.767 2.085v10.702c-1.973-1.39-4.31-2.502-6.868-2.502-5.114 0-9.132 3.753-9.132 8.687 0 2.523.932 4.68 2.53 6.22L.958 46.717" fill="#F4B528" mask="url(#b)"/></g><g transform="translate(0 -1)"><mask id="d" fill="#fff"><use xlink:href="#c"/></mask><path fill="#F4B528" mask="url(#d)" d="M37.99 46.72V.68h13.297v46.038H37.99"/></g><g transform="translate(0 -1)"><mask id="f" fill="#fff"><use xlink:href="#e"/></mask><path d="M85.417 46.72c1.793-1.45 2.764-3.64 2.764-6.15 0-4.38-3.14-8.062-8.547-8.062-5.406 0-8.548 3.683-8.548 8.06 0 2.51.97 4.697 2.765 6.153l-15.49-.002c-.66-1.968-1.01-4.062-1.01-6.218 0-10.216 7.67-18.972 18.777-18.972 4.31 0 8.84 1.53 11.616 4.656V22.71h13.297v24.008l-15.623.002" fill="#F4B528" mask="url(#f)"/></g><g transform="translate(0 -1)"><mask id="h" fill="#fff"><use xlink:href="#g"/></mask><path d="M109.88 46.72V22.71h13.297v5.837h.146c2.557-4.378 6.94-6.324 12.128-6.324h2.558v12.16c-1.826-.972-3.58-1.18-5.626-1.18-7.378 0-9.205 4.656-9.205 10.77v2.748H109.88" fill="#F4B528" mask="url(#h)"/></g><g transform="translate(0 -1)"><mask id="j" fill="#fff"><use xlink:href="#i"/></mask><path d="M168.342 46.723c1.798-1.458 2.76-3.645 2.76-6.154 0-4.38-3.14-8.062-8.547-8.062-5.406 0-8.548 3.683-8.548 8.06 0 2.51.97 4.697 2.757 6.155l-15.49-.002c-.654-1.97-1.002-4.064-1.002-6.22 0-10.216 7.672-18.972 18.776-18.972 4.31 0 8.84 1.53 11.617 4.656V22.71h13.296l.005 24.01-15.623.003" fill="#F4B528" mask="url(#j)"/></g><g transform="translate(0 -1)"><mask id="l" fill="#fff"><use xlink:href="#k"/></mask><path fill="#F4B528" mask="url(#l)" d="M194.044 46.72V33.134h-4.31V22.71h4.31V12.008h13.297V22.71h7.526v10.423h-7.525V46.72h-13.296"/></g><text font-family="Roboto-Bold, Roboto" font-size="48" font-weight="bold" fill="#40301A"><tspan x="227" y="46">DATA</tspan></text></g></svg>